C:\Users\u0145647\OneDrive - KU Leuven\KU Leuven\BCN_Workshop\ParameterEstimation\Data_CP1\IPSA\JointAngles\JointAngles_segment_24.mot
version=1
nRows=94
nColumns=4
inDegrees=yes
endheader
                time	         pelvis_tilt	       hip_flexion_r	       ankle_angle_r	
          7.23000000	         90.00000000	          0.00000000	          3.84109493	
          7.23500000	         90.00000000	          0.00000000	          3.85662288	
          7.24000000	         90.00000000	          0.00000000	          3.87151247	
          7.24500000	         90.00000000	          0.00000000	          3.88691831	
          7.25000000	         90.00000000	          0.00000000	          3.90294818	
          7.25500000	         90.00000000	          0.00000000	          3.91877946	
          7.26000000	         90.00000000	          0.00000000	          3.93429772	
          7.26500000	         90.00000000	          0.00000000	          3.94973282	
          7.27000000	         90.00000000	          0.00000000	          3.96546157	
          7.27500000	         90.00000000	          0.00000000	          3.98207427	
          7.28000000	         90.00000000	          0.00000000	          4.00029222	
          7.28500000	         90.00000000	          0.00000000	          4.02045830	
          7.29000000	         90.00000000	          0.00000000	          4.04247385	
          7.29500000	         90.00000000	          0.00000000	          4.06667882	
          7.30000000	         90.00000000	          0.00000000	          4.09337026	
          7.30500000	         90.00000000	          0.00000000	          4.12170206	
          7.31000000	         90.00000000	          0.00000000	          4.15011061	
          7.31500000	         90.00000000	          0.00000000	          4.17733202	
          7.32000000	         90.00000000	          0.00000000	          4.20272833	
          7.32500000	         90.00000000	          0.00000000	          4.22588559	
          7.33000000	         90.00000000	          0.00000000	          4.24656465	
          7.33500000	         90.00000000	          0.00000000	          4.26479338	
          7.34000000	         90.00000000	          0.00000000	          4.28112508	
          7.34500000	         90.00000000	          0.00000000	          4.29669389	
          7.35000000	         90.00000000	          0.00000000	          4.31226014	
          7.35500000	         90.00000000	          0.00000000	          4.32738438	
          7.36000000	         90.00000000	          0.00000000	          4.34160734	
          7.36500000	         90.00000000	          0.00000000	          4.35536814	
          7.37000000	         90.00000000	          0.00000000	          4.36989882	
          7.37500000	         90.00000000	          0.00000000	          4.38610169	
          7.38000000	         90.00000000	          0.00000000	          4.40380523	
          7.38500000	         90.00000000	          0.00000000	          4.42269755	
          7.39000000	         90.00000000	          0.00000000	          4.44342471	
          7.39500000	         90.00000000	          0.00000000	          4.46663905	
          7.40000000	         90.00000000	          0.00000000	          4.49115361	
          7.40500000	         90.00000000	          0.00000000	          4.51505720	
          7.41000000	         90.00000000	          0.00000000	          4.53735336	
          7.41500000	         90.00000000	          0.00000000	          4.55816808	
          7.42000000	         90.00000000	          0.00000000	          4.57801865	
          7.42500000	         90.00000000	          0.00000000	          4.59740918	
          7.43000000	         90.00000000	          0.00000000	          4.61734411	
          7.43500000	         90.00000000	          0.00000000	          4.63832922	
          7.44000000	         90.00000000	          0.00000000	          4.66048775	
          7.44500000	         90.00000000	          0.00000000	          4.68313571	
          7.45000000	         90.00000000	          0.00000000	          4.70488249	
          7.45500000	         90.00000000	          0.00000000	          4.72513951	
          7.46000000	         90.00000000	          0.00000000	          4.74470808	
          7.46500000	         90.00000000	          0.00000000	          4.76462467	
          7.47000000	         90.00000000	          0.00000000	          4.78446369	
          7.47500000	         90.00000000	          0.00000000	          4.80326494	
          7.48000000	         90.00000000	          0.00000000	          4.82026985	
          7.48500000	         90.00000000	          0.00000000	          4.83479822	
          7.49000000	         90.00000000	          0.00000000	          4.84691512	
          7.49500000	         90.00000000	          0.00000000	          4.85789367	
          7.50000000	         90.00000000	          0.00000000	          4.86908317	
          7.50500000	         90.00000000	          0.00000000	          4.88128177	
          7.51000000	         90.00000000	          0.00000000	          4.89505739	
          7.51500000	         90.00000000	          0.00000000	          4.91019372	
          7.52000000	         90.00000000	          0.00000000	          4.92517614	
          7.52500000	         90.00000000	          0.00000000	          4.93891646	
          7.53000000	         90.00000000	          0.00000000	          4.95199780	
          7.53500000	         90.00000000	          0.00000000	          4.96546330	
          7.54000000	         90.00000000	          0.00000000	          4.98040894	
          7.54500000	         90.00000000	          0.00000000	          4.99799083	
          7.55000000	         90.00000000	          0.00000000	          5.01940171	
          7.55500000	         90.00000000	          0.00000000	          5.04393194	
          7.56000000	         90.00000000	          0.00000000	          5.06883083	
          7.56500000	         90.00000000	          0.00000000	          5.09136840	
          7.57000000	         90.00000000	          0.00000000	          5.11028547	
          7.57500000	         90.00000000	          0.00000000	          5.12486422	
          7.58000000	         90.00000000	          0.00000000	          5.13532946	
          7.58500000	         90.00000000	          0.00000000	          5.14356516	
          7.59000000	         90.00000000	          0.00000000	          5.15196007	
          7.59500000	         90.00000000	          0.00000000	          5.16171470	
          7.60000000	         90.00000000	          0.00000000	          5.17237802	
          7.60500000	         90.00000000	          0.00000000	          5.18235824	
          7.61000000	         90.00000000	          0.00000000	          5.19092862	
          7.61500000	         90.00000000	          0.00000000	          5.19869585	
          7.62000000	         90.00000000	          0.00000000	          5.20625192	
          7.62500000	         90.00000000	          0.00000000	          5.21386825	
          7.63000000	         90.00000000	          0.00000000	          5.22157986	
          7.63500000	         90.00000000	          0.00000000	          5.22972238	
          7.64000000	         90.00000000	          0.00000000	          5.23884207	
          7.64500000	         90.00000000	          0.00000000	          5.24866733	
          7.65000000	         90.00000000	          0.00000000	          5.25779682	
          7.65500000	         90.00000000	          0.00000000	          5.26416525	
          7.66000000	         90.00000000	          0.00000000	          5.26719645	
          7.66500000	         90.00000000	          0.00000000	          5.26832475	
          7.67000000	         90.00000000	          0.00000000	          5.26932952	
          7.67500000	         90.00000000	          0.00000000	          5.27152884	
          7.68000000	         90.00000000	          0.00000000	          5.27610742	
          7.68500000	         90.00000000	          0.00000000	          5.28402133	
          7.69000000	         90.00000000	          0.00000000	          5.29490595	
          7.69500000	         90.00000000	          0.00000000	          5.30725203	
